<?xml version="1.0" standalone="no"?>
<!DOCTYPE svg PUBLIC "-//W3C//DTD SVG 20010904//EN"
 "http://www.w3.org/TR/2001/REC-SVG-20010904/DTD/svg10.dtd">
<svg version="1.0" xmlns="http://www.w3.org/2000/svg"
 width="700.000000pt" height="700.000000pt" viewBox="0 0 700.000000 700.000000"
 preserveAspectRatio="xMidYMid meet">
<metadata>
Created by potrace 1.11, written by Peter Selinger 2001-2013
</metadata>
<g transform="translate(0.000000,700.000000) scale(0.100000,-0.100000)"
fill="#000000" stroke="none">
<path d="M3335 6614 c-212 -21 -274 -28 -365 -46 -183 -34 -449 -106 -473
-128 -5 -4 64 -218 152 -475 89 -258 161 -473 161 -478 0 -5 -96 -108 -212
-229 -117 -121 -225 -238 -239 -261 -27 -42 -109 -128 -125 -131 -5 0 -105
-104 -224 -231 -886 -946 -1608 -1766 -1718 -1949 -62 -102 -97 -386 -72 -582
26 -209 92 -357 215 -480 117 -117 259 -185 458 -220 166 -29 401 -7 512 49
74 36 196 134 366 292 36 34 82 74 102 89 l36 27 128 -17 c166 -22 449 -22
597 0 368 54 674 194 886 406 72 71 159 184 174 225 2 5 6 8 8 5 5 -4 126
-465 476 -1812 l117 -448 1242 0 1243 0 0 2065 0 2065 -21 62 c-86 251 -313
577 -624 896 -383 395 -800 715 -1228 946 -326 175 -736 307 -1077 346 -101
11 -428 21 -495 14z m585 -131 c39 -27 46 -40 99 -173 95 -244 163 -476 202
-697 30 -167 30 -397 1 -506 -41 -151 -118 -250 -240 -309 l-67 -33 7 -55 c17
-134 30 -446 24 -567 -3 -73 -4 -133 -2 -133 6 0 88 144 136 240 61 121 131
288 191 453 29 78 56 152 60 165 9 22 12 21 116 -49 106 -71 273 -189 273
-194 0 -1 -52 -90 -115 -199 -292 -500 -432 -802 -525 -1127 -52 -183 -104
-509 -82 -509 22 0 221 64 315 101 128 51 370 175 505 260 196 122 473 328
728 541 45 37 86 68 92 68 6 0 69 -61 140 -137 l130 -136 -27 -22 c-53 -44
-1082 -815 -1281 -960 -113 -82 -297 -213 -410 -292 -173 -120 -206 -139 -213
-125 -4 9 -34 118 -67 241 -32 124 -67 236 -78 250 -52 70 -140 91 -215 51
l-37 -20 -17 42 c-148 369 -357 578 -626 623 l-38 6 92 -128 c194 -269 307
-453 392 -642 56 -121 55 -123 -31 -196 -41 -34 -108 -83 -150 -108 -71 -43
-78 -45 -90 -29 -161 223 -259 328 -414 443 -301 223 -715 390 -1285 519 -70
16 -129 27 -131 25 -2 -1 43 -25 100 -52 131 -63 294 -156 428 -246 293 -196
505 -418 625 -657 39 -77 85 -192 85 -212 0 -15 -406 -3 -519 15 -47 8 -99 11
-117 7 l-32 -7 -32 86 c-71 187 -211 429 -340 586 -102 124 -266 273 -385 350
-16 11 -69 40 -118 65 l-87 46 32 31 c27 25 71 43 233 93 313 99 417 154 576
307 193 186 297 393 398 796 l48 188 173 185 c94 101 175 184 178 184 2 0 46
-21 95 -46 438 -220 744 -596 823 -1011 18 -93 23 -283 10 -368 l-8 -50 42 40
c50 49 114 177 129 259 32 176 -11 403 -129 681 -60 143 -293 601 -357 703
-30 48 -82 125 -115 170 l-61 84 31 30 30 31 89 -21 c48 -12 97 -24 108 -27
18 -5 23 2 40 67 25 92 25 91 -5 98 l-25 6 -16 234 c-19 258 -32 389 -55 524
-8 48 -14 90 -12 91 12 12 235 26 391 24 153 -1 191 1 205 13 48 42 137 52
182 21z m869 -354 c151 -79 319 -181 456 -277 l110 -77 -3 -45 c-11 -159 -77
-439 -159 -669 -53 -149 -165 -417 -182 -434 -4 -4 -84 49 -177 119 -92 70
-233 170 -312 222 -97 64 -141 99 -138 109 3 7 13 42 22 76 9 34 49 178 90
320 72 251 126 490 139 612 9 85 14 105 27 105 6 0 63 -27 127 -61z m1425
-1153 c90 -107 189 -243 251 -345 l55 -91 -40 -125 c-51 -156 -122 -330 -196
-477 -68 -136 -197 -368 -205 -368 -3 0 -46 46 -95 102 -49 57 -155 171 -236
253 l-147 151 37 64 c139 248 294 662 357 955 10 44 20 84 22 88 5 9 95 -85
197 -207z m-1038 -749 l246 -242 -73 -49 c-213 -141 -483 -344 -838 -630 l-24
-20 7 55 c21 161 105 458 187 655 67 165 222 474 236 474 7 0 124 -109 259
-243z m1081 -1162 c43 -60 99 -139 123 -174 l43 -65 -49 -44 c-197 -175 -548
-451 -1164 -917 -432 -326 -781 -596 -908 -700 -36 -30 -67 -53 -69 -51 -5 5
-113 408 -113 422 0 6 60 65 132 130 73 65 398 360 723 654 324 295 704 638
843 763 l254 227 52 -68 c29 -37 89 -116 133 -177z m361 -127 l-3 -103 -56 85
-56 85 56 113 56 113 3 -95 c1 -52 1 -141 0 -198z m-25 -397 c26 -47 27 -55
27 -182 l0 -132 -42 -56 c-186 -249 -425 -528 -957 -1115 -231 -256 -470 -525
-562 -634 l-36 -42 -300 0 -300 0 -21 79 c-12 43 -22 85 -22 92 0 8 17 26 38
40 31 23 241 201 322 273 14 13 124 126 245 251 246 256 589 588 925 896 262
240 642 579 650 579 3 0 17 -22 33 -49z m22 -2149 c-3 -9 -82 -12 -345 -12
-187 0 -340 4 -340 9 0 15 96 243 163 387 110 234 275 538 467 860 l55 92 3
-662 c1 -363 0 -667 -3 -674z"/>
<path d="M3798 6188 c-53 -91 -164 -332 -212 -461 -43 -117 -70 -269 -61 -347
17 -140 98 -232 205 -232 57 0 82 12 138 65 92 89 106 202 68 538 -35 308 -71
509 -90 509 -3 0 -24 -33 -48 -72z"/>
<path d="M2656 4366 c-158 -67 -258 -261 -228 -443 16 -95 61 -181 127 -242
177 -161 430 -101 538 127 30 63 32 73 32 182 0 109 -2 119 -32 182 -63 133
-169 208 -303 215 -63 3 -84 0 -134 -21z"/>
</g>
</svg>
